<?xml version="1.0" encoding="UTF-8" standalone="no"?>
<svg
   xmlns:dc="http://purl.org/dc/elements/1.1/"
   xmlns:cc="http://creativecommons.org/ns#"
   xmlns:rdf="http://www.w3.org/1999/02/22-rdf-syntax-ns#"
   xmlns:svg="http://www.w3.org/2000/svg"
   xmlns="http://www.w3.org/2000/svg"
   xmlns:sodipodi="http://sodipodi.sourceforge.net/DTD/sodipodi-0.dtd"
   xmlns:inkscape="http://www.inkscape.org/namespaces/inkscape"
   width="61.610119mm"
   height="90.297943mm"
   viewBox="0 0 61.610119 90.297943"
   version="1.1"
   id="svg8"
   inkscape:version="1.0.1 (3bc2e813f5, 2020-09-07)"
   sodipodi:docname="Optio_body_happy.svg">
  <defs
     id="defs2" />
  <sodipodi:namedview
     id="base"
     pagecolor="#ffffff"
     bordercolor="#666666"
     borderopacity="1.0"
     inkscape:pageopacity="0.0"
     inkscape:pageshadow="2"
     inkscape:zoom="5.6"
     inkscape:cx="101.41934"
     inkscape:cy="262.68937"
     inkscape:document-units="mm"
     inkscape:current-layer="layer1"
     inkscape:document-rotation="0"
     showgrid="false"
     inkscape:window-width="1431"
     inkscape:window-height="1030"
     inkscape:window-x="471"
     inkscape:window-y="0"
     inkscape:window-maximized="0"
     fit-margin-top="0"
     fit-margin-left="0"
     fit-margin-right="0"
     fit-margin-bottom="0" />
  <metadata
     id="metadata5">
    <rdf:RDF>
      <cc:Work
         rdf:about="">
        <dc:format>image/svg+xml</dc:format>
        <dc:type
           rdf:resource="http://purl.org/dc/dcmitype/StillImage" />
        <dc:title />
      </cc:Work>
    </rdf:RDF>
  </metadata>
  <g
     inkscape:label="Layer 1"
     inkscape:groupmode="layer"
     id="layer1"
     transform="translate(-66.334824,-89.788528)">
    <rect
       style="display:inline;fill:#ff6600;fill-opacity:1;fill-rule:nonzero;stroke-width:0.241168"
       id="rect886-2"
       width="61.610119"
       height="47.704914"
       x="66.334824"
       y="104.51387"
       ry="9.2002287" />
    <rect
       style="display:inline;fill:#ffdd55;fill-opacity:1;fill-rule:nonzero;stroke-width:0.186523"
       id="rect886-1-4"
       width="48.627987"
       height="36.153709"
       x="72.825882"
       y="110.089"
       ry="6.9724979" />
    <rect
       style="display:inline;fill:#2ad4ff;fill-opacity:1;fill-rule:nonzero;stroke-width:0.130908"
       id="rect907-3"
       width="12.564799"
       height="12.662202"
       x="80.746613"
       y="118.78247"
       rx="2.5811396"
       ry="0" />
    <rect
       style="display:inline;fill:#2ad4ff;fill-opacity:1;fill-rule:nonzero;stroke-width:0.130908"
       id="rect907-7-4"
       width="12.564799"
       height="12.662202"
       x="100.96835"
       y="118.78247"
       rx="2.5811396"
       ry="0" />
    <rect
       style="display:inline;fill:#ff6600;fill-opacity:1;fill-rule:nonzero;stroke-width:0.0908513"
       id="rect936-0-0"
       width="2.0788772"
       height="7.1645293"
       x="-135.28804"
       y="94.06797"
       rx="0"
       ry="0.72095877"
       transform="matrix(0.00329384,-0.99999458,0.99999841,0.00178592,0,0)" />
    <path
       id="rect961-2"
       style="display:inline;fill:#55d400;fill-opacity:1;fill-rule:nonzero;stroke-width:0.149973"
       d="m 103.73871,92.8026 c -0.52435,-0.14661 -1.08074,-0.42826 -1.63911,-0.19912 -0.4884,0.29207 -0.58992,0.94056 -0.76548,1.45573 -0.96883,3.10126 -2.360986,6.05334 -4.001376,8.82591 -0.442939,0.80636 -0.991809,1.56767 -1.272022,2.45858 -0.0767,0.47655 0.356521,0.85957 0.771192,0.78816 0.79666,0.0724 1.65127,0.12377 2.413169,-0.28055 0.651352,-0.3873 1.072827,-1.09858 1.377337,-1.81152 1.62412,-3.15718 2.9861,-6.47325 3.96523,-9.90379 0.1126,-0.32847 0.0924,-0.71051 -0.13162,-0.9544 -0.17501,-0.23891 -0.44754,-0.32595 -0.71732,-0.379 z" />
    <path
       style="display:inline;fill:#55d400;fill-opacity:1;fill-rule:nonzero;stroke-width:0.128289"
       d="m 99.289724,100.30982 c 0.490281,-0.11615 0.962306,-0.29052 1.048956,-0.3875 0.10816,-0.12106 0.13,-0.66561 0.0697,-1.7374 -0.0767,-1.3625 -0.14555,-1.70859 -0.541589,-2.72072 -1.41224,-3.60943 -4.939001,-5.88714 -8.764019,-5.66013 -1.40259,0.0833 -2.56263,0.42291 -3.75277,1.09883 l -0.84305,0.47879 0.0712,0.5297 c 0.0391,0.29133 0.213,0.96135 0.38636,1.48893 1.68137,5.11656 7.09145,8.14942 12.325289,6.9095 z"
       id="path979-1" />
    <path
       style="display:inline;fill:#ffffff;fill-opacity:1;fill-rule:nonzero;stroke-width:0.254"
       id="path1014-89"
       d="m 82.341464,121.05621 c 0.005,-0.007 0.0116,-0.0138 0.0143,-0.0222 0.0137,-0.0426 0.0208,-0.0872 0.0346,-0.12983 0.0502,-0.15468 0.13151,-0.27654 0.23955,-0.39569 0.0614,-0.0519 0.1266,-0.12751 0.21195,-0.1351 0.66367,-0.24861 0.31208,-1.18718 -0.351589,-0.93856 v 0 c -0.0618,0.0258 -0.12558,0.0473 -0.185361,0.0775 -0.16794,0.0848 -0.30918,0.21394 -0.43903,0.34748 -0.0477,0.058 -0.099,0.11319 -0.14309,0.17392 -0.21841,0.30064 -0.34078,0.65548 -0.38362,1.0225 0,0.7087 1.00226,0.7087 1.00226,0 z" />
    <path
       style="display:inline;fill:#ffffff;fill-opacity:1;fill-rule:nonzero;stroke-width:0.254"
       id="path1014-8-0"
       d="m 102.42651,121.05109 c 0.005,-0.007 0.0116,-0.0138 0.0143,-0.0222 0.0137,-0.0426 0.0208,-0.0872 0.0346,-0.12983 0.0502,-0.15468 0.13151,-0.27654 0.23955,-0.39569 0.0614,-0.0519 0.1266,-0.12751 0.21195,-0.1351 0.66367,-0.24861 0.31208,-1.18718 -0.35159,-0.93856 v 0 c -0.0618,0.0258 -0.12558,0.0473 -0.18536,0.0775 -0.16794,0.0848 -0.30918,0.21393 -0.43903,0.34748 -0.0477,0.058 -0.099,0.11319 -0.14309,0.17392 -0.21841,0.30064 -0.34078,0.65548 -0.38362,1.02249 0,0.70871 1.00226,0.70871 1.00226,0 z" />
    <rect
       style="display:inline;fill:#ff6600;stroke-width:0.254"
       id="rect852-5"
       width="14.031651"
       height="17.506153"
       x="90.124054"
       y="153.45975"
       ry="5.0447178" />
    <ellipse
       style="display:inline;fill:#2ad4ff;fill-opacity:1;stroke-width:0.161"
       id="path856-3"
       cx="97.139877"
       cy="173.60521"
       rx="3.6081383"
       ry="1.3697561" />
    <ellipse
       style="display:inline;fill:#2ad4ff;fill-opacity:1;stroke-width:0.0981707"
       id="path856-4-88"
       cx="97.139877"
       cy="176.84583"
       rx="2.2000842"
       ry="0.83521706" />
    <ellipse
       style="display:inline;fill:#2ad4ff;fill-opacity:1;stroke-width:0.0589023"
       id="path856-4-8-7"
       cx="97.139877"
       cy="179.58534"
       rx="1.3200502"
       ry="0.50113016" />
    <ellipse
       style="display:inline;fill:#ffdd55;fill-opacity:1;stroke-width:0.254"
       id="path1056-2"
       cx="99.901237"
       cy="158.68909"
       rx="0.92131698"
       ry="0.9921875" />
    <ellipse
       style="display:inline;fill:#ffdd55;fill-opacity:1;stroke-width:0.254"
       id="path1056-6-1"
       cx="102.42895"
       cy="158.68909"
       rx="0.92131698"
       ry="0.9921875" />
    <rect
       style="display:inline;fill:#ff6600;fill-opacity:1;stroke-width:0.254"
       id="rect1170"
       width="12.628485"
       height="1.4699824"
       x="47.721447"
       y="134.069"
       ry="0.72095782"
       transform="rotate(-14.924937)" />
    <rect
       style="display:inline;fill:#ff6600;fill-opacity:1;stroke-width:0.254"
       id="rect1170-1"
       width="12.628485"
       height="1.4699824"
       x="127.08981"
       y="84.813232"
       ry="0.72095782"
       transform="rotate(14.560747)" />
    <rect
       style="display:inline;fill:#ff6600;fill-opacity:1;fill-rule:nonzero;stroke-width:0.0653308"
       id="rect936-0-0-3"
       width="2.0788689"
       height="3.7047868"
       x="99.17527"
       y="131.59166"
       rx="0"
       ry="0.37280867"
       transform="matrix(0.99999855,0.00170325,-0.00345371,0.99999404,0,0)" />
    <rect
       style="display:inline;fill:#ff6600;fill-opacity:1;fill-rule:nonzero;stroke-width:0.0653309"
       id="rect936-0-0-3-8"
       width="2.0788689"
       height="3.704787"
       x="94.089615"
       y="131.59106"
       rx="0"
       ry="0.37280867"
       transform="matrix(0.99999855,0.00170325,-0.00345371,0.99999404,0,0)" />
    <rect
       style="fill:#ffdd55;fill-opacity:1;stroke-width:4.38771"
       id="rect870"
       width="6.3783479"
       height="1.5119046"
       x="90.808784"
       y="157.96599"
       ry="0.7559523"
       rx="0.67413437" />
  </g>
</svg>
