<?xml version="1.0" encoding="UTF-8" standalone="no"?>
<svg
   xmlns:dc="http://purl.org/dc/elements/1.1/"
   xmlns:cc="http://creativecommons.org/ns#"
   xmlns:rdf="http://www.w3.org/1999/02/22-rdf-syntax-ns#"
   xmlns:svg="http://www.w3.org/2000/svg"
   xmlns="http://www.w3.org/2000/svg"
   xmlns:sodipodi="http://sodipodi.sourceforge.net/DTD/sodipodi-0.dtd"
   xmlns:inkscape="http://www.inkscape.org/namespaces/inkscape"
   width="106.22963mm"
   height="107.64371mm"
   viewBox="0 0 106.22963 107.64371"
   version="1.1"
   id="svg888"
   inkscape:version="1.0.1 (3bc2e813f5, 2020-09-07)"
   sodipodi:docname="optioface.svg">
  <defs
     id="defs882" />
  <sodipodi:namedview
     id="base"
     pagecolor="#ffffff"
     bordercolor="#666666"
     borderopacity="1.0"
     inkscape:pageopacity="0.0"
     inkscape:pageshadow="2"
     inkscape:zoom="0.35"
     inkscape:cx="290.7489"
     inkscape:cy="254.92348"
     inkscape:document-units="mm"
     inkscape:current-layer="layer1"
     inkscape:document-rotation="0"
     showgrid="false"
     inkscape:window-width="1431"
     inkscape:window-height="1030"
     inkscape:window-x="384"
     inkscape:window-y="0"
     inkscape:window-maximized="0"
     fit-margin-top="0"
     fit-margin-left="0"
     fit-margin-right="0"
     fit-margin-bottom="0" />
  <metadata
     id="metadata885">
    <rdf:RDF>
      <cc:Work
         rdf:about="">
        <dc:format>image/svg+xml</dc:format>
        <dc:type
           rdf:resource="http://purl.org/dc/dcmitype/StillImage" />
        <dc:title></dc:title>
      </cc:Work>
    </rdf:RDF>
  </metadata>
  <g
     inkscape:label="Layer 1"
     inkscape:groupmode="layer"
     id="layer1"
     transform="translate(-28.906021,-80.718162)">
    <rect
       style="display:inline;fill:#ff6600;fill-opacity:1;fill-rule:nonzero;stroke-width:0.415827"
       id="rect886"
       width="106.22963"
       height="82.253937"
       x="28.906021"
       y="106.10793"
       ry="15.863254" />
    <rect
       style="display:inline;fill:#ffdd55;fill-opacity:1;fill-rule:nonzero;stroke-width:0.321608"
       id="rect886-1"
       width="83.845528"
       height="62.337082"
       x="40.098045"
       y="115.72072"
       ry="12.022146" />
    <rect
       style="display:inline;fill:#2ad4ff;fill-opacity:1;fill-rule:nonzero;stroke-width:0.225715"
       id="rect907"
       width="21.664526"
       height="21.832468"
       x="53.755173"
       y="130.71019"
       rx="4.4504623"
       ry="0" />
    <rect
       style="display:inline;fill:#2ad4ff;fill-opacity:1;fill-rule:nonzero;stroke-width:0.225715"
       id="rect907-7"
       width="21.664526"
       height="21.832468"
       x="88.621948"
       y="130.71019"
       rx="4.4504623"
       ry="0" />
    <rect
       style="display:inline;fill:#ff6600;fill-opacity:1;fill-rule:nonzero;stroke-width:0.114953"
       id="rect936"
       width="3.5844407"
       height="6.6522737"
       x="75.840332"
       y="156.60754"
       rx="0"
       ry="0.66941088" />
    <rect
       style="display:inline;fill:#ff6600;fill-opacity:1;fill-rule:nonzero;stroke-width:0.116352"
       id="rect936-6"
       width="3.5844407"
       height="6.8152022"
       x="84.609131"
       y="156.46667"
       rx="0"
       ry="0.68580627" />
    <rect
       style="display:inline;fill:#ff6600;fill-opacity:1;fill-rule:nonzero;stroke-width:0.156648"
       id="rect936-0"
       width="3.5844493"
       height="12.353251"
       x="-163.12428"
       y="76.377785"
       rx="0"
       ry="1.2430942"
       transform="matrix(0.00329384,-0.99999458,0.99999841,0.00178592,0,0)" />
    <path
       id="rect961"
       style="display:inline;fill:#55d400;fill-opacity:1;fill-rule:nonzero;stroke-width:0.258586"
       d="m 93.39869,85.915083 c -0.904094,-0.252776 -1.86344,-0.73841 -2.826188,-0.343315 -0.842105,0.503586 -1.017155,1.621742 -1.319859,2.510007 -1.670484,5.347251 -4.07088,10.437318 -6.899284,15.217825 -0.763717,1.39037 -1.710088,2.70304 -2.193233,4.23915 -0.132246,0.82168 0.614706,1.48209 1.329704,1.35896 1.373603,0.12471 2.847155,0.21333 4.160848,-0.48374 1.123066,-0.66776 1.849781,-1.89416 2.374838,-3.12345 2.800332,-5.443688 5.148698,-11.161342 6.836951,-17.076361 0.194144,-0.566353 0.159198,-1.225072 -0.227034,-1.645588 -0.301768,-0.411927 -0.771665,-0.561989 -1.236834,-0.653488 z" />
    <path
       style="display:inline;fill:#55d400;fill-opacity:1;fill-rule:nonzero;stroke-width:0.221199"
       d="m 85.727627,98.85921 c 0.845372,-0.200311 1.659246,-0.500914 1.808646,-0.668129 0.186378,-0.208762 0.224065,-1.147642 0.120141,-2.995665 -0.132247,-2.349256 -0.250949,-2.945986 -0.93381,-4.691135 -2.435023,-6.223457 -8.515955,-10.150738 -15.11114,-9.759321 -2.418372,0.143438 -4.418557,0.729182 -6.470613,1.894617 l -1.453613,0.825546 0.122881,0.913322 c 0.06738,0.50233 0.367275,1.657601 0.666165,2.567245 2.899073,8.822086 12.227257,14.05143 21.251572,11.91352 z"
       id="path979" />
    <path
       style="display:inline;fill:#ffffff;fill-opacity:1;fill-rule:nonzero;stroke-width:0.437952"
       id="path1014"
       d="m 56.505052,134.63063 c 0.0091,-0.0137 0.02056,-0.0238 0.02467,-0.0384 0.02353,-0.0736 0.03586,-0.15052 0.05961,-0.22384 0.08657,-0.26669 0.226805,-0.4768 0.413024,-0.68225 0.105751,-0.0895 0.218355,-0.21995 0.365447,-0.23295 1.144331,-0.42864 0.538099,-2.04696 -0.606209,-1.61829 v 0 c -0.106436,0.0445 -0.216527,0.0815 -0.319606,0.13362 -0.289572,0.14641 -0.533097,0.36887 -0.756979,0.59913 -0.08223,0.10004 -0.170618,0.19528 -0.246723,0.29989 -0.376593,0.51837 -0.587582,1.13019 -0.661448,1.76301 0,1.22197 1.728121,1.22197 1.728121,0 z" />
    <path
       style="display:inline;fill:#ffffff;fill-opacity:1;fill-rule:nonzero;stroke-width:0.437952"
       id="path1014-8"
       d="m 91.136159,134.62181 c 0.0091,-0.0137 0.02056,-0.0238 0.02467,-0.0384 0.02375,-0.0735 0.03586,-0.15052 0.05961,-0.22384 0.08657,-0.26671 0.226806,-0.47682 0.413047,-0.68224 0.105752,-0.0895 0.218355,-0.21973 0.365448,-0.23295 1.144307,-0.42867 0.538098,-2.04697 -0.606232,-1.6183 v 0 c -0.106437,0.0445 -0.216528,0.0815 -0.319584,0.13362 -0.289571,0.14641 -0.533096,0.36888 -0.757001,0.59913 -0.08223,0.10004 -0.170619,0.19529 -0.246723,0.2999 -0.376571,0.51836 -0.587571,1.13016 -0.661437,1.76298 0,1.22197 1.728132,1.22197 1.728132,0 z" />
    <rect
       style="display:inline;fill:#ff6600;fill-opacity:1;stroke-width:6.8745"
       id="rect862-2"
       width="23.461758"
       height="4.5620084"
       x="118.63924"
       y="90.291077"
       ry="1.2430925"
       transform="rotate(15.935987)" />
    <rect
       style="display:inline;fill:#ff6600;fill-opacity:1;stroke-width:6.8745"
       id="rect862-2-9"
       width="23.461758"
       height="4.5620084"
       x="-37.918804"
       y="134.99413"
       ry="1.2430927"
       transform="matrix(-0.96156905,0.27456323,0.27456323,0.96156905,0,0)" />
  </g>
</svg>
