<?xml version="1.0" encoding="UTF-8" standalone="no"?>
<svg
   xmlns:dc="http://purl.org/dc/elements/1.1/"
   xmlns:cc="http://creativecommons.org/ns#"
   xmlns:rdf="http://www.w3.org/1999/02/22-rdf-syntax-ns#"
   xmlns:svg="http://www.w3.org/2000/svg"
   xmlns="http://www.w3.org/2000/svg"
   xmlns:sodipodi="http://sodipodi.sourceforge.net/DTD/sodipodi-0.dtd"
   xmlns:inkscape="http://www.inkscape.org/namespaces/inkscape"
   width="110.43266mm"
   height="82.378128mm"
   viewBox="0 0 110.43266 82.378131"
   version="1.1"
   id="svg868"
   inkscape:version="1.0.1 (3bc2e813f5, 2020-09-07)"
   sodipodi:docname="optiobodyhi.svg">
  <defs
     id="defs862">
    <inkscape:path-effect
       effect="spiro"
       id="path-effect859"
       is_visible="true"
       lpeversion="1" />
    <inkscape:path-effect
       effect="spiro"
       id="path-effect855"
       is_visible="true"
       lpeversion="1" />
  </defs>
  <sodipodi:namedview
     id="base"
     pagecolor="#ffffff"
     bordercolor="#666666"
     borderopacity="1.0"
     inkscape:pageopacity="0.0"
     inkscape:pageshadow="2"
     inkscape:zoom="1.4"
     inkscape:cx="159.40695"
     inkscape:cy="220.45905"
     inkscape:document-units="mm"
     inkscape:current-layer="layer2"
     inkscape:document-rotation="0"
     showgrid="false"
     inkscape:lockguides="false"
     inkscape:window-width="1431"
     inkscape:window-height="1030"
     inkscape:window-x="116"
     inkscape:window-y="0"
     inkscape:window-maximized="0"
     fit-margin-top="0"
     fit-margin-left="0"
     fit-margin-right="0"
     fit-margin-bottom="0" />
  <metadata
     id="metadata865">
    <rdf:RDF>
      <cc:Work
         rdf:about="">
        <dc:format>image/svg+xml</dc:format>
        <dc:type
           rdf:resource="http://purl.org/dc/dcmitype/StillImage" />
        <dc:title />
      </cc:Work>
    </rdf:RDF>
  </metadata>
  <g
     inkscape:groupmode="layer"
     id="layer2"
     inkscape:label="below"
     transform="translate(-64.507439,-105.44007)" />
  <g
     inkscape:label="Layer 1"
     inkscape:groupmode="layer"
     id="layer1"
     transform="translate(-64.507439,-105.44007)">
    <rect
       style="display:inline;fill:#ff6600;fill-opacity:1;fill-rule:nonzero;stroke-width:0.231436"
       id="rect886"
       width="59.36058"
       height="45.59734"
       x="75.31971"
       y="125.2791"
       ry="8.7937698" />
    <rect
       style="display:inline;fill:#ffdd55;fill-opacity:1;fill-rule:nonzero;stroke-width:0.178996"
       id="rect886-1"
       width="46.852459"
       height="34.556465"
       x="81.573769"
       y="130.60794"
       ry="6.6644583" />
    <rect
       style="display:inline;fill:#2ad4ff;fill-opacity:1;fill-rule:nonzero;stroke-width:0.125626"
       id="rect907"
       width="12.106028"
       height="12.102795"
       x="89.205299"
       y="138.9173"
       rx="2.4868958"
       ry="0" />
    <rect
       style="display:inline;fill:#2ad4ff;fill-opacity:1;fill-rule:nonzero;stroke-width:0.125626"
       id="rect907-7"
       width="12.106028"
       height="12.102795"
       x="108.68867"
       y="138.9173"
       rx="2.4868958"
       ry="0" />
    <rect
       style="display:inline;fill:#ff6600;fill-opacity:1;fill-rule:nonzero;stroke-width:0.0639789"
       id="rect936"
       width="2.0029674"
       height="3.6876776"
       x="101.54636"
       y="153.27345"
       rx="0"
       ry="0.3710869" />
    <rect
       style="display:inline;fill:#ff6600;fill-opacity:1;fill-rule:nonzero;stroke-width:0.0647575"
       id="rect936-6"
       width="2.0029674"
       height="3.7779965"
       x="106.44633"
       y="153.19537"
       rx="0"
       ry="0.38017565" />
    <rect
       style="display:inline;fill:#ff6600;fill-opacity:1;fill-rule:nonzero;stroke-width:0.087185"
       id="rect936-0"
       width="1.9870341"
       height="6.9029341"
       x="-156.78119"
       y="102.0671"
       rx="0"
       ry="0.69463474"
       transform="matrix(0.00332026,-0.99999449,0.99999843,0.00177171,0,0)" />
    <path
       id="rect961"
       style="display:inline;fill:#55d400;fill-opacity:1;fill-rule:nonzero;stroke-width:0.143921"
       d="m 111.3579,114.08522 c -0.5052,-0.14013 -1.04128,-0.40934 -1.57926,-0.19032 -0.47057,0.27917 -0.56838,0.89901 -0.73753,1.39142 -0.93346,2.96425 -2.27479,5.78591 -3.85528,8.43598 -0.42677,0.77074 -0.9556,1.49842 -1.22558,2.34997 -0.0739,0.45549 0.34351,0.8216 0.74303,0.75334 0.76758,0.0691 1.59098,0.11826 2.32506,-0.26816 0.62757,-0.37018 1.03366,-1.05004 1.32705,-1.73148 1.56482,-3.01771 2.87707,-6.18727 3.82046,-9.46625 0.10848,-0.31397 0.089,-0.67913 -0.12682,-0.91223 -0.16862,-0.22837 -0.4312,-0.31155 -0.69113,-0.36227 z" />
    <path
       style="display:inline;fill:#55d400;fill-opacity:1;fill-rule:nonzero;stroke-width:0.123112"
       d="m 107.07135,121.26078 c 0.47238,-0.11104 0.92718,-0.27769 1.01066,-0.37037 0.10421,-0.11573 0.12526,-0.63621 0.0672,-1.66064 -0.0739,-1.30231 -0.14023,-1.63312 -0.52181,-2.60054 -1.36068,-3.44996 -4.75867,-5.62705 -8.444019,-5.41006 -1.351378,0.0795 -2.469063,0.40422 -3.615748,1.05027 l -0.812268,0.45766 0.0686,0.50628 c 0.03768,0.27847 0.205222,0.91889 0.372252,1.42315 1.61998,4.89052 6.832523,7.78939 11.875253,6.60425 z"
       id="path979" />
    <path
       style="display:inline;fill:#ffffff;fill-opacity:1;fill-rule:nonzero;stroke-width:0.24375"
       id="path1014"
       d="m 90.741924,141.0906 c 0.0048,-0.008 0.01123,-0.0132 0.01378,-0.0213 0.0132,-0.0408 0.02004,-0.0833 0.03334,-0.12408 0.04837,-0.14784 0.126712,-0.26431 0.230803,-0.3782 0.05916,-0.0496 0.121978,-0.12194 0.204212,-0.12913 0.639437,-0.23763 0.300685,-1.13473 -0.338753,-0.89711 v 0 c -0.05954,0.0247 -0.120995,0.0452 -0.178592,0.0741 -0.161809,0.0812 -0.297892,0.2045 -0.423,0.33214 -0.04596,0.0555 -0.09539,0.10826 -0.137866,0.16623 -0.210435,0.28736 -0.328337,0.62652 -0.369613,0.97733 0,0.67739 0.965666,0.67739 0.965666,0 z" />
    <path
       style="display:inline;fill:#ffffff;fill-opacity:1;fill-rule:nonzero;stroke-width:0.24375"
       id="path1014-8"
       d="m 110.09361,141.08571 c 0.005,-0.008 0.0112,-0.0132 0.0138,-0.0213 0.0132,-0.0408 0.02,-0.0833 0.0333,-0.12408 0.0484,-0.14785 0.12672,-0.26432 0.23081,-0.3782 0.0592,-0.0496 0.12197,-0.12181 0.20421,-0.12914 0.63944,-0.23762 0.30068,-1.13473 -0.33876,-0.8971 v 0 c -0.0595,0.0247 -0.12099,0.0452 -0.17859,0.0741 -0.1618,0.0812 -0.29789,0.20449 -0.423,0.33213 -0.046,0.0555 -0.0954,0.10813 -0.13786,0.16625 -0.21044,0.28735 -0.32834,0.62652 -0.36962,0.97732 0,0.67739 0.96567,0.67739 0.96567,0 z" />
    <rect
       style="display:inline;fill:#ff6600;fill-opacity:1;stroke-width:3.82614"
       id="rect862-2"
       width="13.102477"
       height="2.5304773"
       x="141.4971"
       y="97.900505"
       ry="0.68952465"
       transform="matrix(0.96214408,0.27254132,-0.27659767,0.96098581,0,0)" />
    <rect
       style="display:inline;fill:#ff6600;fill-opacity:1;stroke-width:3.82614"
       id="rect862-2-9"
       width="13.102477"
       height="2.5304773"
       x="-59.653118"
       y="154.94788"
       ry="0.68952471"
       transform="matrix(-0.96214408,0.27254132,0.27659768,0.96098581,0,0)" />
    <rect
       style="fill:#000000;fill-opacity:1;stroke-width:4.18532"
       id="rect1517"
       width="85.333557"
       height="12.6857"
       x="77.579414"
       y="173.89554"
       ry="3.3701506" />
    <text
       xml:space="preserve"
       style="font-style:normal;font-weight:normal;font-size:11.027px;line-height:1.25;font-family:sans-serif;fill:#ffffff;fill-opacity:1;stroke:none;stroke-width:0.275674"
       x="85.816711"
       y="178.05066"
       id="text1534"
       transform="scale(0.96967818,1.03127)"><tspan
         sodipodi:role="line"
         id="tspan1532"
         x="85.816711"
         y="178.05066"
         style="font-style:normal;font-variant:normal;font-weight:normal;font-stretch:normal;font-family:'Bauhaus 93';-inkscape-font-specification:'Bauhaus 93, ';fill:#ffffff;stroke-width:0.275674">How may i help?</tspan></text>
    <path
       style="fill:#000000;stroke-width:0.951373"
       d=""
       id="path869"
       transform="matrix(0.26458333,0,0,0.26458333,64.507439,105.44007)" />
    <path
       id="path887"
       style="fill:#000000;stroke-width:2.26493"
       inkscape:transform-center-x="0.075145651"
       inkscape:transform-center-y="-0.086385533"
       d="m 78.057803,178.78984 c 1.895374,-1.13022 3.790747,-2.26044 5.686121,-3.39065 0.670771,-3.16038 1.341539,-6.32075 2.012309,-9.48113 -2.566143,4.2906 -5.132288,8.58119 -7.69843,12.87178 z" />
  </g>
</svg>
